<svg width="24px" height="24px" viewBox="0 0 24 24" fill="none" xmlns="http://www.w3.org/2000/svg">
    <path
        d="M13.96 5.31684L12.46 1.80903C12.4217 1.71845 12.3577 1.64117 12.2759 1.58681C12.1941 1.53246 12.0981 1.50343 12 1.50335H10.5V0.501116C10.5 0.368212 10.4473 0.240751 10.3536 0.146774C10.2598 0.0527961 10.1326 0 10 0H0.5C0.367392 0 0.240215 0.0527961 0.146447 0.146774C0.0526784 0.240751 0 0.368212 0 0.501116V9.02009C0 9.15299 0.0526784 9.28046 0.146447 9.37443C0.240215 9.46841 0.367392 9.52121 0.5 9.52121H1.57C1.68514 9.94584 1.9365 10.3207 2.2853 10.5879C2.6341 10.8552 3.06095 11 3.5 11C3.93905 11 4.3659 10.8552 4.7147 10.5879C5.0635 10.3207 5.31486 9.94584 5.43 9.52121H8.57C8.68514 9.94584 8.9365 10.3207 9.2853 10.5879C9.6341 10.8552 10.0609 11 10.5 11C10.9391 11 11.3659 10.8552 11.7147 10.5879C12.0635 10.3207 12.3149 9.94584 12.43 9.52121H13.5C13.6326 9.52121 13.7598 9.46841 13.8536 9.37443C13.9473 9.28046 14 9.15299 14 9.02009V5.51228C13.9999 5.4451 13.9863 5.37864 13.96 5.31684ZM10.5 2.50558H11.67L12.74 5.01116H10.5V2.50558ZM3.5 10.0223C3.30222 10.0223 3.10888 9.96354 2.94443 9.85342C2.77998 9.74329 2.65181 9.58676 2.57612 9.40363C2.50043 9.22049 2.48063 9.01898 2.51921 8.82456C2.5578 8.63015 2.65304 8.45157 2.79289 8.31141C2.93275 8.17124 3.11093 8.07579 3.30491 8.03712C3.49889 7.99844 3.69996 8.01829 3.88268 8.09415C4.06541 8.17 4.22159 8.29846 4.33147 8.46328C4.44135 8.6281 4.5 8.82187 4.5 9.02009C4.5 9.2859 4.39464 9.54082 4.20711 9.72878C4.01957 9.91673 3.76522 10.0223 3.5 10.0223ZM8.57 8.51897H5.43C5.31486 8.09434 5.0635 7.71948 4.7147 7.45223C4.3659 7.18498 3.93905 7.04018 3.5 7.04018C3.06095 7.04018 2.6341 7.18498 2.2853 7.45223C1.9365 7.71948 1.68514 8.09434 1.57 8.51897H1V1.00223H9.5V7.29625C9.27232 7.42869 9.07297 7.60487 8.91338 7.81469C8.75379 8.02452 8.6371 8.26385 8.57 8.51897ZM10.5 10.0223C10.3022 10.0223 10.1089 9.96354 9.94443 9.85342C9.77998 9.74329 9.65181 9.58676 9.57612 9.40363C9.50043 9.22049 9.48063 9.01898 9.51921 8.82456C9.5578 8.63015 9.65304 8.45157 9.79289 8.31141C9.93275 8.17124 10.1109 8.07579 10.3049 8.03712C10.4989 7.99844 10.7 8.01829 10.8827 8.09415C11.0654 8.17 11.2216 8.29846 11.3315 8.46328C11.4414 8.6281 11.5 8.82187 11.5 9.02009C11.5 9.2859 11.3946 9.54082 11.2071 9.72878C11.0196 9.91673 10.7652 10.0223 10.5 10.0223ZM13 8.51897H12.43C12.3194 8.08978 12.07 7.70942 11.7208 7.43741C11.3716 7.16539 10.9423 7.01706 10.5 7.01563V6.01339H13V8.51897Z"
        fill="#1C958F" />
</svg>