<svg width="14" height="15" viewBox="0 0 14 15" fill="none" xmlns="http://www.w3.org/2000/svg">
<path d="M6.99989 11.1517C7.28554 11.1517 7.51711 10.9201 7.51711 10.6344C7.51711 10.3488 7.28554 10.1172 6.99989 10.1172C6.71423 10.1172 6.48267 10.3488 6.48267 10.6344C6.48267 10.9201 6.71423 11.1517 6.99989 11.1517Z" fill="#B24141"/>
<path d="M6.99997 9.29277C6.89683 9.29277 6.79792 9.2518 6.72499 9.17887C6.65206 9.10594 6.61108 9.00702 6.61108 8.90388V4.23722C6.61108 4.13408 6.65206 4.03516 6.72499 3.96223C6.79792 3.8893 6.89683 3.84833 6.99997 3.84833C7.10311 3.84833 7.20203 3.8893 7.27496 3.96223C7.34789 4.03516 7.38886 4.13408 7.38886 4.23722V8.90388C7.38886 9.00702 7.34789 9.10594 7.27496 9.17887C7.20203 9.2518 7.10311 9.29277 6.99997 9.29277Z" fill="#B24141"/>
<path d="M7.00006 13.7222C5.76942 13.7222 4.56641 13.3573 3.54318 12.6736C2.51994 11.9899 1.72242 11.0181 1.25147 9.88114C0.780528 8.74417 0.657307 7.49309 0.897393 6.2861C1.13748 5.07911 1.73009 3.97041 2.60028 3.10022C3.47047 2.23003 4.57917 1.63742 5.78616 1.39733C6.99315 1.15725 8.24424 1.28047 9.3812 1.75141C10.5182 2.22236 11.4899 3.01988 12.1736 4.04311C12.8574 5.06635 13.2223 6.26936 13.2223 7.5C13.2223 9.15023 12.5667 10.7329 11.3998 11.8998C10.2329 13.0667 8.65029 13.7222 7.00006 13.7222V13.7222ZM7.00006 2.05555C5.92325 2.05555 4.87062 2.37486 3.97529 2.97311C3.07995 3.57135 2.38212 4.42166 1.97005 5.4165C1.55797 6.41134 1.45015 7.50604 1.66023 8.56215C1.8703 9.61827 2.38883 10.5884 3.15025 11.3498C3.91167 12.1112 4.88178 12.6298 5.9379 12.8398C6.99402 13.0499 8.08871 12.9421 9.08356 12.53C10.0784 12.1179 10.9287 11.4201 11.5269 10.5248C12.1252 9.62943 12.4445 8.57681 12.4445 7.5C12.4445 6.05604 11.8709 4.67122 10.8499 3.65019C9.82883 2.62916 8.44401 2.05555 7.00006 2.05555V2.05555Z" fill="#B24141"/>
</svg>
