<svg id="Layer_1" data-name="Layer 1" xmlns="http://www.w3.org/2000/svg" viewBox="0 0 24 24" >
    <defs></defs>
    <path
        style="fill='#fff'"
        d="M22.88,10.76l-1.75-.32h0a8.73,8.73,0,0,0-.44-1.62h0L22,7.63a.2.2,0,0,0,0-.25l-1-1.8a.21.21,0,0,0-.24-.09l-1.65.59,0,0a9.24,9.24,0,0,0-1.17-1.17l0,0,.59-1.65A.21.21,0,0,0,18.42,3l-1.8-1a.2.2,0,0,0-.25,0L15.23,3.29l0,0a7.32,7.32,0,0,0-1.64-.42l-.33-1.77A.19.19,0,0,0,13,1H11a.21.21,0,0,0-.2.16l-.3,1.75a7.93,7.93,0,0,0-1.66.44L7.63,2a.2.2,0,0,0-.25,0L5.58,3a.2.2,0,0,0-.09.24l.59,1.65,0,0A9.24,9.24,0,0,0,4.89,6.06l0,0L3.2,5.49A.2.2,0,0,0,3,5.58l-1,1.8a.2.2,0,0,0,0,.25L3.29,8.77v0a9.2,9.2,0,0,0-.43,1.64l-1.75.32A.21.21,0,0,0,1,11V13a.2.2,0,0,0,.16.2l1.74.3A9.38,9.38,0,0,0,3.3,15.2L2,16.37a.2.2,0,0,0,0,.25l1,1.8a.2.2,0,0,0,.24.09l1.65-.59,0,0a9.24,9.24,0,0,0,1.17,1.17l0,0L5.49,20.8a.19.19,0,0,0,.09.24l1.8,1a.2.2,0,0,0,.25,0l1.14-1.33h0a7.9,7.9,0,0,0,1.64.42l.32,1.76A.2.2,0,0,0,11,23H13a.2.2,0,0,0,.2-.16l.3-1.74a9.93,9.93,0,0,0,1.66-.44L16.37,22a.2.2,0,0,0,.25,0l1.8-1a.21.21,0,0,0,.09-.24l-.59-1.65,0,0a9.24,9.24,0,0,0,1.17-1.17l0,0,1.65.59a.19.19,0,0,0,.24-.09l1-1.8a.2.2,0,0,0,0-.25l-1.33-1.14v0a7.88,7.88,0,0,0,.41-1.64l1.77-.32A.21.21,0,0,0,23,13V11A.2.2,0,0,0,22.88,10.76ZM5.93,3.23h0Zm0,17.55ZM20.78,5.93ZM16.56,2.35h0Zm-5.43-1h0Zm-3.7,1h0ZM3.22,5.93h0ZM2.35,7.44h0Zm-1,5.43Zm0-1.74Zm1,5.44Zm8.78,6.07Zm9.65-4.57Zm.87-1.5Zm.63-4L21,12.81a.73.73,0,0,0-.58.61A10.31,10.31,0,0,1,20,15l0,.23a.76.76,0,0,0,.26.56l1,.86-.57,1-1.28-.45-.22,0a.71.71,0,0,0-.56.27,10.23,10.23,0,0,1-1.14,1.14.73.73,0,0,0-.27.6l0,.21.45,1.25-1,.57-.85-1a.75.75,0,0,0-.59-.25h0L15,20a8.57,8.57,0,0,1-1.56.42.75.75,0,0,0-.6.59l-.24,1.3H11.43L11.19,21a.75.75,0,0,0-.61-.59A8.44,8.44,0,0,1,9,20l-.23,0a.77.77,0,0,0-.56.25l-.85,1-1-.57.46-1.29,0-.21a.71.71,0,0,0-.27-.56,10.23,10.23,0,0,1-1.14-1.14.71.71,0,0,0-.6-.26l-.21,0-1.25.44-.57-1,1-.86a.74.74,0,0,0,.25-.6L4,15a8.23,8.23,0,0,1-.41-1.55.76.76,0,0,0-.6-.61l-1.3-.24V11.43L3,11.19a.73.73,0,0,0,.59-.61A8.87,8.87,0,0,1,4,9l0-.22a.78.78,0,0,0-.26-.57l-1-.85.57-1,1.29.45.21,0a.71.71,0,0,0,.56-.27A9.36,9.36,0,0,1,6.58,5.45a.76.76,0,0,0,.27-.6l0-.21L6.36,3.38l1-.57.86,1a.75.75,0,0,0,.58.25h0L9,4a8.23,8.23,0,0,1,1.55-.41A.75.75,0,0,0,11.19,3l.24-1.31h1.14L12.81,3a.75.75,0,0,0,.61.59A9.75,9.75,0,0,1,15,4l.22,0h0a.76.76,0,0,0,.56-.26l.85-1,1,.57-.46,1.28,0,.22a.74.74,0,0,0,.27.57,8.62,8.62,0,0,1,1.13,1.13.76.76,0,0,0,.6.27h0l.21,0,1.25-.44.57,1-1,.85a.76.76,0,0,0-.25.6L20,9a8.65,8.65,0,0,1,.41,1.55.76.76,0,0,0,.6.61l1.3.24Z"
    />
    <path
        class="cls-1"
        d="M12,8.07h0A3.94,3.94,0,1,0,15.94,12,3.95,3.95,0,0,0,12,8.07Zm2.22,6.17v0A3.17,3.17,0,0,1,8.83,12a3.2,3.2,0,0,1,.93-2.24A3.14,3.14,0,0,1,12,8.83h0A3.18,3.18,0,0,1,15.17,12,3.14,3.14,0,0,1,14.24,14.24Z"
    />
</svg>